<svg width="24" height="24" viewBox="0 0 24 24" fill="none" xmlns="http://www.w3.org/2000/svg">
<path fill-rule="evenodd" clip-rule="evenodd" d="M6 8.5C6 7.11929 7.11929 6 8.5 6C9.88071 6 11 7.11929 11 8.5C11 9.88071 9.88071 11 8.5 11C7.11929 11 6 9.88071 6 8.5ZM8.5 8C8.22386 8 8 8.22386 8 8.5C8 8.77614 8.22386 9 8.5 9C8.77614 9 9 8.77614 9 8.5C9 8.22386 8.77614 8 8.5 8Z" fill="#2D3648"/>
<path fill-rule="evenodd" clip-rule="evenodd" d="M2 5C2 3.34315 3.34315 2 5 2H19C20.6569 2 22 3.34315 22 5V19C22 20.6569 20.6569 22 19 22H5C3.34315 22 2 20.6569 2 19V5ZM5 4C4.44772 4 4 4.44772 4 5V19C4 19.4288 4.26993 19.7946 4.64914 19.9367L15.293 9.29289C15.6835 8.90237 16.3167 8.90237 16.7072 9.29289L20 12.5857V5C20 4.44772 19.5523 4 19 4H5ZM20 15.4141L16.0001 11.4142L7.41429 20H19C19.5523 20 20 19.5523 20 19V15.4141Z" fill="#2D3648"/>
</svg>
