<?xml version="1.0" standalone="no"?><!DOCTYPE svg PUBLIC "-//W3C//DTD SVG 1.1//EN" "http://www.w3.org/Graphics/SVG/1.1/DTD/svg11.dtd"><svg t="1724916494855" class="icon" viewBox="0 0 1024 1024" version="1.1" xmlns="http://www.w3.org/2000/svg" p-id="1311" xmlns:xlink="http://www.w3.org/1999/xlink" width="200" height="200"><path d="M684.8 32H96C76.8 32 64 44.8 64 64v595.2c0 19.2 12.8 32 32 32h595.2c19.2 0 32-12.8 32-32V64c-6.4-19.2-19.2-32-38.4-32z m-12.8 576c0 19.2-12.8 32-32 32H140.8c-19.2 0-32-12.8-32-32V102.4c0-19.2 12.8-32 32-32h505.6c19.2 0 32 12.8 32 32v505.6z" fill="#2c2c2c" p-id="1312"></path><path d="M940.8 339.2H345.6c-12.8 0-25.6 12.8-25.6 32V960c0 19.2 12.8 32 32 32h595.2c19.2 0 32-12.8 32-32V371.2c-6.4-19.2-19.2-32-38.4-32z m-12.8 582.4c0 19.2-12.8 32-32 32H390.4c-19.2 0-32-12.8-32-32V416c6.4-19.2 19.2-32 32-32H896c19.2 0 32 12.8 32 32v505.6z" fill="#2c2c2c" p-id="1313"></path></svg>