<?xml version="1.0" standalone="no"?><!DOCTYPE svg PUBLIC "-//W3C//DTD SVG 1.1//EN" "http://www.w3.org/Graphics/SVG/1.1/DTD/svg11.dtd"><svg t="1724916778903" class="icon" viewBox="0 0 1024 1024" version="1.1" xmlns="http://www.w3.org/2000/svg" p-id="1454" xmlns:xlink="http://www.w3.org/1999/xlink" width="200" height="200"><path d="M921.8 290.7c-23.5-45.9-56.7-86.7-98.7-121.3-83.9-69.3-194.6-107.5-311.7-107.5-117.2 0-227.9 38.2-311.6 107.5-42.1 34.8-75.3 75.6-98.7 121.3-24.8 48.4-37.4 100.1-37.4 153.6s12.6 105.1 37.4 153.5c23.5 45.8 56.7 86.6 98.7 121.3 21.9 18.2 46.1 34.4 72.3 48.5v157.5c0 13.5 8 25.7 20.3 31.1 4.4 2 9.1 2.9 13.7 2.9 8 0 15.8-2.8 22.1-8.1l151.1-125.7c6.2 0.2 15.5 0.5 27.6 1.1 5.3 0.2 6 0.3 7 0.3 115.8-0.3 225.7-38.5 309.3-107.5 42.2-34.8 75.4-75.7 98.7-121.4 24.8-48.5 37.4-100.1 37.4-153.5 0-53.3-12.6-105-37.5-153.6z m-56.9 277.9c-19.4 37.9-47.1 71.9-82.5 101.2-72.1 59.5-167.3 92.5-268.2 92.9-0.8 0-2.4-0.1-4.6-0.2-6.1-0.3-16.2-0.7-25-1-5.1-0.2-9-0.2-12-0.3-6.5 0-16.4-0.1-25.7 7.7l-111 92.4V748.4c0-12.3-6.9-23.4-17.9-29l-0.4-0.2c-28.3-13.8-54.2-30.4-77.1-49.3-35.3-29.2-63.1-63.2-82.5-101.2-20.1-39.3-30.3-81.1-30.3-124.3 0-43.3 10.2-85.2 30.3-124.4 19.4-37.9 47.2-71.9 82.6-101.1 72.3-59.9 168.5-92.8 270.8-92.8 102.2 0 198.4 33 270.9 92.9 35.3 29 63 63 82.5 101.1 20.2 39.5 30.5 81.4 30.5 124.4 0 42.9-10.2 84.8-30.4 124.1z" fill="#2c2c2c" p-id="1455"></path><path d="M511.9 441.3m-37.5 0a37.5 37.5 0 1 0 75 0 37.5 37.5 0 1 0-75 0Z" fill="#2c2c2c" p-id="1456"></path><path d="M677.6 441.3m-37.5 0a37.5 37.5 0 1 0 75 0 37.5 37.5 0 1 0-75 0Z" fill="#2c2c2c" p-id="1457"></path><path d="M346.1 441.3m-37.5 0a37.5 37.5 0 1 0 75 0 37.5 37.5 0 1 0-75 0Z" fill="#2c2c2c" p-id="1458"></path></svg>