<svg width="270" height="308" viewBox="0 0 270 308" fill="none" xmlns="http://www.w3.org/2000/svg">
<g clip-path="url(#clip0_282_505)">
<path d="M74.0484 251.137V305.589L50.748 291.25V264.419L74.0484 251.137Z" fill="white"/>
<path d="M25.6549 251.819V278.704L2.35449 264.078V237.48L25.6549 251.819Z" fill="white"/>
<path d="M74.0484 31.3602V195.969L50.748 209.465V99.3258V72.7633V43.1V17.0215L74.0484 31.3602Z" fill="white"/>
<path d="M50.7477 72.7632V99.3257L2.35449 71.5265V44.7668L50.7477 72.7632Z" fill="white"/>
<path d="M242.528 183.71V209.502L195.031 182.222L170.368 168.045L146.226 154.19L99.2663 127.197L99.2843 100.85L168.845 141.088L192.898 154.996L217.668 169.335L242.528 183.71Z" fill="white"/>
<path d="M267.531 169.012V196.256L242.528 209.501V183.709L267.531 169.012Z" fill="#060606"/>
<path d="M267.531 169.013L242.528 183.71L217.668 169.335L192.898 154.997L168.845 141.088L99.2843 100.85L99.3202 71.3123L194.189 126.409L218.188 140.353L243.12 154.835L267.531 169.013Z" fill="white"/>
<path d="M264.036 113.808V142.916L243.12 154.835L218.188 140.353L264.036 113.808Z" fill="#060606"/>
<path d="M264.036 113.808L218.188 140.353L194.189 126.408L240.736 99.4695L264.036 113.808Z" fill="white"/>
<path d="M195.031 182.221L99.1767 236.816L74.0481 251.137L50.7477 264.418L25.6549 278.703V251.818L50.7477 237.282L74.0481 223.804L99.2126 209.232L170.368 168.044L195.031 182.221Z" fill="#060606"/>
<path d="M170.368 168.044L99.2126 209.232L74.0481 223.804L50.7477 237.283L25.6549 251.818L2.35449 237.48L50.7477 209.465L74.0481 195.969L99.2305 181.397L146.226 154.19L170.368 168.044Z" fill="white"/>
<path d="M99.3562 17.0215L99.3204 71.3115L99.2845 100.849L99.2666 127.197L99.2308 181.397L74.0484 195.969V31.3602L99.3562 17.0215Z" fill="#060606"/>
<path d="M99.3562 17.0218L74.0484 31.3606L50.748 17.0218L75.8407 2.68311L99.3562 17.0218Z" fill="white"/>
<path d="M99.177 236.816L99.1411 293.042L74.0484 305.588V251.137L99.177 236.816Z" fill="#060606"/>
<path d="M50.7477 43.1008V72.764L2.35449 44.7677L27.4473 29.5686L50.7477 43.1008Z" fill="white"/>
<path d="M50.748 72.7633V43.1V17.0215L74.0484 31.3602" stroke="black" stroke-width="7.16936" stroke-linecap="round" stroke-linejoin="round"/>
<path d="M50.748 209.466V99.3264" stroke="black" stroke-width="7.16936" stroke-linecap="round" stroke-linejoin="round"/>
<path d="M74.0484 251.137V305.589L50.748 291.25V264.419" stroke="black" stroke-width="7.16936" stroke-linecap="round" stroke-linejoin="round"/>
<path d="M50.748 17.0218L75.8407 2.68311L99.3562 17.0218" stroke="black" stroke-width="7.16936" stroke-linecap="round" stroke-linejoin="round"/>
<path d="M74.0484 195.969V31.3602L99.3562 17.0215L99.3204 71.3115" stroke="black" stroke-width="7.16936" stroke-linecap="round" stroke-linejoin="round"/>
<path d="M99.2664 127.197L99.2306 181.397" stroke="black" stroke-width="7.16936" stroke-linecap="round" stroke-linejoin="round"/>
<path d="M74.0484 305.588L99.1411 293.042L99.177 236.816" stroke="black" stroke-width="7.16936" stroke-linecap="round" stroke-linejoin="round"/>
<path d="M25.6549 251.818L2.35449 237.48L50.7477 209.465L74.0481 195.969L99.2305 181.397L146.226 154.19" stroke="black" stroke-width="7.16936" stroke-linecap="round" stroke-linejoin="round"/>
<path d="M194.189 126.408L240.736 99.4695L264.036 113.808L218.188 140.353" stroke="black" stroke-width="7.16936" stroke-linecap="round" stroke-linejoin="round"/>
<path d="M2.35449 237.48V264.078L25.6549 278.704" stroke="black" stroke-width="7.16936" stroke-linecap="round" stroke-linejoin="round"/>
<path d="M264.036 113.808V142.916L243.12 154.835" stroke="black" stroke-width="7.16936" stroke-linecap="round" stroke-linejoin="round"/>
<path d="M195.031 182.221L99.1767 236.816L74.0481 251.137L50.7477 264.418L25.6549 278.703V251.818L50.7477 237.282L74.0481 223.804L99.2126 209.232L170.368 168.044" stroke="black" stroke-width="7.16936" stroke-linecap="round" stroke-linejoin="round"/>
<path d="M50.7477 72.7632V99.3257L2.35449 71.5265V44.7668L50.7477 72.7632Z" stroke="black" stroke-width="7.16936" stroke-linecap="round" stroke-linejoin="round"/>
<path d="M217.668 169.335L242.528 183.71V209.502L195.031 182.222L170.368 168.045L146.226 154.19L99.2663 127.197L99.2843 100.85" stroke="black" stroke-width="7.16936" stroke-linecap="round" stroke-linejoin="round"/>
<path d="M242.528 209.501L267.531 196.256V169.012L242.528 183.709" stroke="black" stroke-width="7.16936" stroke-linecap="round" stroke-linejoin="round"/>
<path d="M2.35449 44.7676L27.4473 29.5686L50.7477 43.1008" stroke="black" stroke-width="7.16936" stroke-linecap="round" stroke-linejoin="round"/>
<path d="M217.668 169.335L192.898 154.997L168.845 141.088L99.2843 100.85L99.3202 71.3123L194.189 126.409L218.188 140.353L243.12 154.835" stroke="black" stroke-width="7.16936" stroke-linecap="round" stroke-linejoin="round"/>
<path d="M267.531 169.013L243.12 154.835" stroke="black" stroke-width="7.16936" stroke-linecap="round" stroke-linejoin="round"/>
</g>
<defs>
<clipPath id="clip0_282_505">
<rect width="268.761" height="306.49" fill="white" transform="translate(0.5625 0.890625)"/>
</clipPath>
</defs>
</svg>
