<?xml version="1.0" standalone="no"?><!DOCTYPE svg PUBLIC "-//W3C//DTD SVG 1.1//EN" "http://www.w3.org/Graphics/SVG/1.1/DTD/svg11.dtd"><svg t="1724916936052" class="icon" viewBox="0 0 1024 1024" version="1.1" xmlns="http://www.w3.org/2000/svg" p-id="2475" xmlns:xlink="http://www.w3.org/1999/xlink" width="200" height="200"><path d="M469.632 808.064A341.376 341.376 0 0 1 170.666667 469.333333h85.333333a256 256 0 0 0 256 256h1.749333A256 256 0 0 0 768 469.333333h85.333333a341.376 341.376 0 0 1-298.368 338.645334l0.426667 130.56-85.333333 0.256-0.426667-130.730667zM512 128a85.333333 85.333333 0 0 0-85.333333 85.333333v256a85.333333 85.333333 0 1 0 170.666666 0V213.333333a85.333333 85.333333 0 0 0-85.333333-85.333333z m0-85.333333a170.666667 170.666667 0 0 1 170.666667 170.666666v256a170.666667 170.666667 0 1 1-341.333334 0V213.333333a170.666667 170.666667 0 0 1 170.666667-170.666666z" fill="#2E2F30" p-id="2476"></path><path d="M341.333333 981.333333v-85.333333h341.333334v85.333333z" fill="#2E2F30" p-id="2477"></path></svg>