<?xml version="1.0" standalone="no"?><!DOCTYPE svg PUBLIC "-//W3C//DTD SVG 1.1//EN" "http://www.w3.org/Graphics/SVG/1.1/DTD/svg11.dtd"><svg t="1724917112289" class="icon" viewBox="0 0 1152 1024" version="1.1" xmlns="http://www.w3.org/2000/svg" p-id="3646" xmlns:xlink="http://www.w3.org/1999/xlink" width="225" height="200"><path d="M1120.04 64c-3.92 0-7.96 0.74-11.92 2.32L768.02 192H768L424 70.56A128.504 128.504 0 0 0 383.52 64c-13.38 0-26.74 2.1-39.62 6.28L40.24 175.9A64.012 64.012 0 0 0 0 235.32v692.64C0 946.34 15.06 960 31.98 960c3.92 0 7.94-0.74 11.92-2.32L384 832l344 121.42a127.96 127.96 0 0 0 80.1 0.3l303.66-105.62A63.992 63.992 0 0 0 1152 788.68V96.04c0-18.38-15.06-32.04-31.96-32.04zM448 180.84l256 90.38v571.94l-256-90.38V180.84zM96 836.1V258.14l256-89.06v572.4l-1.28 0.46L96 836.1z m960-70.26l-256 89.06V282.52l1.28-0.48L1056 187.9v577.94z" fill="#2c2c2c" p-id="3647"></path></svg>