<svg width="400" height="400" viewBox="0 0 400 400" fill="none" xmlns="http://www.w3.org/2000/svg">
<g clip-path="url(#clip0_104_993)">
<rect width="400" height="400" rx="200" fill="white"/>
<rect width="400" height="400" fill="#A2BFF8"/>
<circle cx="200" cy="200" r="190" stroke="white" stroke-width="20"/>
<path d="M229.251 267.605C220.715 267.346 195.388 259.264 190.353 255.535L229.251 267.605Z" fill="#F1CF73"/>
<path d="M232.764 307.441C248.513 329.499 299.435 336.047 308.124 339.2C322.374 344.6 324.798 359.2 325.008 367.153C325.617 389.812 328.275 428.682 320.325 449.224" fill="#F1CF73"/>
<path d="M232.764 307.441C223.209 290.217 229.251 267.605 229.251 267.605C229.251 267.605 247.764 268.488 255.187 264.688C269.461 258.535 286.416 236.029 286.24 203.805C285.836 174.787 279.736 146.133 268.29 119.488C257.962 92.6523 193.878 67.57 145.6 114.441C145.6 114.441 119.571 138.346 134.687 178.076" fill="#F1CF73"/>
<path d="M59.6769 449.224C52.8036 427.094 55.5084 368.906 56.5037 360.694C57.499 352.483 61.3396 335.824 81.6786 330.753C90.6713 328.482 146.982 319.335 158.41 303.464" fill="#F1CF73"/>
<path d="M161.174 243.464C161.174 243.464 142.263 232.676 134.722 210.182C127.182 187.688 134.687 178.076 134.687 178.076C140.741 169.005 164.827 166.782 164.827 194.146" fill="#F1CF73"/>
<path d="M161.174 243.464C162.614 272.052 162.977 285.17 158.41 303.464L161.174 243.464Z" fill="#F1CF73"/>
<path d="M232.764 307.441C248.513 329.499 299.435 336.047 308.124 339.2C322.374 344.6 324.798 359.2 325.008 367.153C325.617 389.812 328.275 428.682 320.325 449.224H59.6769C52.8036 427.094 55.5084 368.906 56.5037 360.694C57.499 352.483 61.3396 335.824 81.6786 330.753C90.6713 328.482 146.982 319.335 158.41 303.464C162.977 285.17 162.614 272.052 161.174 243.464C161.174 243.464 142.263 232.676 134.722 210.182C127.182 187.688 134.687 178.076 134.687 178.076C119.571 138.346 145.6 114.441 145.6 114.441C193.878 67.57 257.962 92.6523 268.29 119.488C279.736 146.133 285.836 174.787 286.24 203.805C286.416 236.029 269.461 258.535 255.187 264.688C247.764 268.488 229.251 267.605 229.251 267.605C229.251 267.605 223.209 290.217 232.764 307.441Z" fill="#F1CF73"/>
<path opacity="0.4" d="M228.982 266.699C227.848 274.706 226.092 286.471 228.982 295.883C218.268 293.33 188.023 272.323 188.023 255.264C201.256 260.457 214.979 264.288 228.982 266.699Z" fill="#050504"/>
<path d="M148.488 184.706C143.922 185.953 140.807 192.883 144.437 200.353" stroke="#050504" stroke-width="3" stroke-linecap="round"/>
<path d="M57.503 440.4C50.5971 418.27 53.3148 360.082 54.3148 351.87C55.3148 343.659 59.1736 327 79.6089 321.929C87.3987 319.972 130.272 313.825 149.302 301.998C150.683 296.09 150.66 288.865 149.55 280.934C151.887 285.692 170.437 289.4 192.972 289.4C215.585 289.4 234.185 285.666 236.418 280.885C234.953 288.854 234.865 296.681 236.361 304.653C255.767 322.422 299.133 327.489 307.126 330.376C321.444 335.776 323.879 350.376 324.091 358.329C324.703 380.988 327.373 419.859 319.385 440.4H57.503Z" fill="#EB8682"/>
<path d="M229.41 274.118C235.127 275.729 236.643 277.741 236.643 279.918C236.643 280.244 236.567 280.567 236.418 280.885M158.455 274.118C152.714 275.718 149.302 277.729 149.302 279.918C149.302 280.261 149.386 280.6 149.55 280.934M149.385 279.8C149.442 280.179 149.497 280.558 149.55 280.934M236.467 280.623C236.45 280.711 236.434 280.798 236.418 280.885M149.55 280.934C150.66 288.865 150.683 296.09 149.302 301.998C130.272 313.825 87.3987 319.972 79.6089 321.929C59.1736 327 55.3148 343.659 54.3148 351.87C53.3148 360.082 50.5971 418.27 57.503 440.4H319.385C327.373 419.859 324.703 380.988 324.091 358.329C323.879 350.376 321.444 335.776 307.126 330.376C299.133 327.489 255.767 322.422 236.361 304.653C234.865 296.681 234.953 288.854 236.418 280.885M149.55 280.934C151.887 285.692 170.437 289.4 192.972 289.4C215.585 289.4 234.185 285.666 236.418 280.885" stroke="#050504" stroke-width="3" stroke-linecap="round" stroke-linejoin="round"/>
<mask id="mask0_104_993" style="mask-type:alpha" maskUnits="userSpaceOnUse" x="55" y="286" width="268" height="153">
<path d="M151.593 302.533C152.726 297.689 152.956 292.105 152.485 286.102C152.731 286.215 152.983 286.325 153.24 286.433C155.863 287.535 159.276 288.483 163.233 289.26C171.164 290.818 181.592 291.753 192.972 291.753C204.392 291.753 214.853 290.811 222.793 289.244C226.755 288.462 230.169 287.509 232.786 286.399C232.954 286.328 233.119 286.256 233.282 286.183C232.635 292.473 232.856 298.734 234.048 305.087C234.142 305.587 234.396 306.044 234.772 306.388C244.928 315.688 261.117 321.511 275.41 325.367C282.611 327.31 289.442 328.78 294.94 329.94L296.16 330.197C301.122 331.242 304.641 331.984 306.312 332.584C319.146 337.435 321.531 350.581 321.739 358.393C321.819 361.353 321.933 364.572 322.054 367.979L322.054 367.98C322.399 377.71 322.798 388.973 322.61 400.119C322.369 414.471 321.151 428.262 317.744 438.047H59.2706C56.3155 427.074 55.3532 408.387 55.2971 390.908C55.2384 372.603 56.168 356.117 56.6505 352.155C57.1324 348.197 58.2883 342.373 61.6684 336.97C65.0052 331.636 70.5796 326.594 80.1756 324.213L80.1824 324.211C81.625 323.849 84.3655 323.329 88.0812 322.624C89.1585 322.419 90.3177 322.199 91.5511 321.963C96.9731 320.925 103.692 319.597 110.771 317.957C124.829 314.7 140.66 310.139 150.544 303.996C151.074 303.667 151.451 303.141 151.593 302.533Z" fill="#EB8682"/>
</mask>
<g mask="url(#mask0_104_993)">
<path d="M54.116 263.529C54.116 263.529 138.001 301.797 191.763 301.764C243.688 301.733 324.704 263.529 324.704 263.529V280C324.704 280 243.684 315.27 191.763 315.294C138.004 315.318 54.116 281.176 54.116 281.176V263.529Z" fill="white"/>
<path d="M54.1157 298.823C54.1157 298.823 138 325.326 191.763 325.294C243.688 325.262 324.704 298.823 324.704 298.823V315.294C324.704 315.294 243.684 338.8 191.763 338.823C138.004 338.848 54.1157 316.47 54.1157 316.47V298.823Z" fill="white"/>
<path d="M54.1157 322.353C54.1157 322.353 138 348.856 191.763 348.823C243.688 348.792 324.704 322.353 324.704 322.353V338.823C324.704 338.823 243.684 362.329 191.763 362.353C138.004 362.377 54.1157 340 54.1157 340V322.353Z" fill="white"/>
<path d="M54.1157 347.059C54.1157 347.059 138 373.562 191.763 373.529C243.688 373.498 324.704 347.059 324.704 347.059V363.529C324.704 363.529 243.684 387.035 191.763 387.059C138.004 387.083 54.1157 364.706 54.1157 364.706V347.059Z" fill="white"/>
<path d="M54.1157 375.294C54.1157 375.294 138 397.091 191.763 397.059C243.688 397.027 324.704 376.47 324.704 376.47V392.941C324.704 392.941 243.684 410.564 191.763 410.588C138.004 410.612 54.1157 392.941 54.1157 392.941V375.294Z" fill="white"/>
<path d="M54.1157 403.529C54.1157 403.529 138 418.268 191.763 418.235C243.688 418.204 324.704 403.529 324.704 403.529V420C324.704 420 243.684 431.741 191.763 431.764C138.004 431.789 54.1157 421.176 54.1157 421.176V403.529Z" fill="white"/>
</g>
<path d="M158.822 284.118L160.233 274.118C157.292 274.314 150.586 277.176 150.586 280C150.586 282.823 156.076 283.921 158.822 284.118Z" fill="#050504"/>
<path d="M225.88 284.706L227.645 274.118C230.586 274.314 235.88 277.176 235.88 280C235.88 282.823 228.626 284.51 225.88 284.706Z" fill="#050504"/>
<path d="M273.257 135.756C261.567 142.448 216.774 146.967 203.251 145.427C196.922 144.702 184.685 143.518 177.286 142.69C177.059 142.699 176.84 142.777 176.657 142.913C176.474 143.05 176.335 143.238 176.259 143.455C176.183 143.671 176.173 143.906 176.23 144.128C176.288 144.35 176.41 144.55 176.58 144.702C208.191 165.78 167.542 214.48 165.425 187.468C161.304 165.251 142.078 173.301 139.801 174.692C137.059 176.425 134.761 178.79 133.097 181.592C131.037 184.915 129.955 202.681 140.519 220.873C140.641 221.104 140.681 221.37 140.634 221.627C140.586 221.884 140.453 222.117 140.257 222.288L136.455 225.3C136.333 225.389 136.195 225.453 136.049 225.488C135.903 225.523 135.752 225.528 135.604 225.503C135.455 225.479 135.314 225.425 135.186 225.345C135.059 225.264 134.948 225.159 134.861 225.036C83.9446 146.554 120.496 130.593 125.96 128.73C126.151 128.654 126.319 128.528 126.445 128.364C126.572 128.2 126.652 128.004 126.677 127.798C128.828 105.823 142.454 80.4902 173.143 75.649C189.625 72.8777 206.222 75.8445 216.114 79.7888H216.193C228.248 83.7215 237.423 76.7875 248.191 66.3346C248.339 66.1914 248.515 66.0803 248.707 66.0081C248.899 65.936 249.104 65.9043 249.309 65.9151C249.513 65.9259 249.714 65.9789 249.898 66.0708C250.081 66.1627 250.244 66.2916 250.377 66.4496C255.033 72.0498 254.794 76.0285 253.166 79.4668C253.096 79.6626 253.08 79.8738 253.12 80.078C253.159 80.2822 253.253 80.4717 253.391 80.6263C253.529 80.7809 253.706 80.8948 253.903 80.9559C254.099 81.017 254.309 81.023 254.509 80.9732C264.287 77.3624 285.71 81.6517 293.883 75.8445C294.039 75.7485 294.215 75.6917 294.397 75.6789C294.579 75.6661 294.761 75.6977 294.929 75.771C295.096 75.8442 295.244 75.9571 295.359 76.1C295.474 76.2428 295.553 76.4116 295.591 76.592C299.017 103.374 289.387 126.786 273.257 135.756Z" fill="#050504" stroke="#050504" stroke-width="3" stroke-linecap="round" stroke-linejoin="bevel"/>
<path d="M235.249 182.506C235.249 183.334 235.921 184.006 236.749 184.006C237.578 184.006 238.249 183.334 238.249 182.506H235.249ZM253.364 180.564C253.364 181.393 254.035 182.064 254.864 182.064C255.692 182.064 256.364 181.393 256.364 180.564H253.364ZM200.714 182.983C201.504 183.232 202.346 182.794 202.596 182.004C202.845 181.214 202.406 180.371 201.616 180.122L200.714 182.983ZM138.123 172.341L138.767 173.696C138.783 173.688 138.799 173.68 138.815 173.672L138.123 172.341ZM127.28 191.05C127.432 191.865 128.215 192.402 129.029 192.251C129.844 192.1 130.381 191.317 130.23 190.502L127.28 191.05ZM235.249 181.553C235.249 192.301 227.76 200.629 218.963 200.629V203.629C229.812 203.629 238.249 193.533 238.249 181.553H235.249ZM218.963 200.629C210.166 200.629 202.677 192.301 202.677 181.553H199.677C199.677 193.533 208.114 203.629 218.963 203.629V200.629ZM202.677 181.553C202.677 170.804 210.166 162.476 218.963 162.476V159.476C208.114 159.476 199.677 169.573 199.677 181.553H202.677ZM218.963 162.476C227.76 162.476 235.249 170.804 235.249 181.553H238.249C238.249 169.573 229.812 159.476 218.963 159.476V162.476ZM288.772 177.576C288.772 188.324 281.283 196.653 272.486 196.653V199.653C283.335 199.653 291.772 189.556 291.772 177.576H288.772ZM272.486 196.653C263.689 196.653 256.2 188.324 256.2 177.576H253.2C253.2 189.556 261.637 199.653 272.486 199.653V196.653ZM256.2 177.576C256.2 166.828 263.689 158.5 272.486 158.5V155.5C261.637 155.5 253.2 165.596 253.2 177.576H256.2ZM272.486 158.5C281.283 158.5 288.772 166.828 288.772 177.576H291.772C291.772 165.596 283.335 155.5 272.486 155.5V158.5ZM238.249 182.506C238.249 181.094 238.993 179.957 240.385 179.072C241.81 178.166 243.807 177.614 245.897 177.487C247.989 177.36 249.996 177.67 251.415 178.312C252.845 178.959 253.364 179.762 253.364 180.564H256.364C256.364 178.09 254.618 176.469 252.652 175.579C250.674 174.684 248.152 174.344 245.716 174.492C243.278 174.64 240.746 175.287 238.775 176.541C236.77 177.816 235.249 179.8 235.249 182.506H238.249ZM201.165 181.553C201.616 180.122 201.616 180.122 201.616 180.122C201.615 180.122 201.614 180.122 201.614 180.121C201.612 180.121 201.609 180.12 201.606 180.119C201.6 180.117 201.59 180.114 201.578 180.11C201.553 180.102 201.516 180.091 201.467 180.076C201.37 180.045 201.227 180.001 201.04 179.943C200.665 179.827 200.115 179.659 199.412 179.448C198.005 179.025 195.983 178.429 193.518 177.735C188.588 176.347 181.877 174.565 174.758 172.99C167.648 171.416 160.094 170.041 153.489 169.481C150.187 169.201 147.088 169.122 144.383 169.333C141.699 169.542 139.285 170.045 137.43 171.01L138.815 173.672C140.153 172.975 142.105 172.52 144.616 172.324C147.104 172.13 150.029 172.199 153.236 172.471C159.649 173.015 167.057 174.358 174.11 175.919C181.156 177.478 187.81 179.244 192.705 180.622C195.151 181.311 197.156 181.902 198.548 182.321C199.244 182.53 199.787 182.696 200.155 182.81C200.339 182.866 200.48 182.91 200.574 182.939C200.621 182.954 200.656 182.965 200.68 182.972C200.691 182.976 200.7 182.979 200.706 182.981C200.709 182.982 200.711 182.982 200.712 182.983C200.713 182.983 200.713 182.983 200.714 182.983C200.714 182.983 200.714 182.983 201.165 181.553ZM137.478 170.986C133.81 172.731 130.82 175.646 128.976 179.276L131.651 180.635C133.196 177.594 135.698 175.155 138.767 173.696L137.478 170.986ZM128.976 179.276C127.132 182.905 126.536 187.045 127.28 191.05L130.23 190.502C129.606 187.145 130.106 183.676 131.651 180.635L128.976 179.276Z" fill="#050504"/>
<path d="M247.702 187.704C247.369 186.945 246.485 186.6 245.726 186.932C244.967 187.264 244.621 188.149 244.954 188.908L247.702 187.704ZM248.573 218.195C247.816 218.534 247.477 219.421 247.815 220.177C248.154 220.933 249.041 221.272 249.797 220.934L248.573 218.195ZM193.461 161.869C192.928 162.503 193.009 163.449 193.642 163.983C194.276 164.516 195.222 164.435 195.756 163.802L193.461 161.869ZM220.24 151.777L220.493 150.298L220.483 150.296L220.24 151.777ZM223.57 154.218C224.347 154.506 225.21 154.111 225.499 153.334C225.787 152.557 225.391 151.694 224.615 151.406L223.57 154.218ZM250.538 154.376C249.927 154.935 249.885 155.884 250.444 156.495C251.004 157.106 251.952 157.148 252.564 156.589L250.538 154.376ZM275.25 149.918L275.881 148.557L275.879 148.556L275.25 149.918ZM277.426 152.962C278.088 153.461 279.028 153.329 279.527 152.668C280.026 152.007 279.894 151.066 279.233 150.567L277.426 152.962ZM246.328 188.306C244.954 188.908 244.954 188.908 244.954 188.908C244.954 188.908 244.954 188.909 244.954 188.909C244.955 188.91 244.955 188.911 244.956 188.912C244.957 188.915 244.959 188.919 244.961 188.924C244.966 188.935 244.973 188.951 244.982 188.972C245.001 189.015 245.029 189.079 245.065 189.163C245.138 189.33 245.245 189.575 245.381 189.889C245.654 190.516 246.043 191.415 246.51 192.502C247.445 194.677 248.691 197.603 249.936 200.609C251.182 203.619 252.423 206.697 253.35 209.18C253.814 210.423 254.193 211.501 254.455 212.338C254.585 212.758 254.681 213.1 254.743 213.364C254.812 213.657 254.816 213.759 254.816 213.741H257.816C257.816 213.394 257.742 213.01 257.664 212.679C257.579 212.319 257.461 211.901 257.319 211.445C257.034 210.531 256.633 209.395 256.16 208.131C255.215 205.598 253.958 202.482 252.708 199.462C251.456 196.439 250.204 193.5 249.267 191.317C248.797 190.226 248.406 189.323 248.133 188.693C247.996 188.378 247.888 188.131 247.815 187.963C247.778 187.879 247.75 187.814 247.731 187.771C247.721 187.749 247.714 187.732 247.709 187.721C247.707 187.716 247.705 187.711 247.704 187.709C247.703 187.707 247.703 187.706 247.702 187.705C247.702 187.705 247.702 187.705 247.702 187.704C247.702 187.704 247.702 187.704 246.328 188.306ZM254.816 213.741C254.816 213.731 254.818 213.811 254.709 214.001C254.6 214.19 254.416 214.427 254.14 214.703C253.585 215.259 252.8 215.836 251.949 216.373C251.11 216.904 250.262 217.362 249.619 217.689C249.299 217.851 249.033 217.98 248.849 218.067C248.757 218.111 248.686 218.144 248.639 218.165C248.615 218.176 248.597 218.184 248.586 218.189C248.581 218.192 248.577 218.194 248.574 218.195C248.573 218.195 248.573 218.196 248.572 218.196C248.572 218.196 248.572 218.196 248.572 218.196C248.572 218.196 248.572 218.196 248.572 218.196C248.572 218.196 248.573 218.195 249.185 219.565C249.797 220.934 249.797 220.934 249.798 220.934C249.798 220.934 249.798 220.934 249.798 220.934C249.799 220.933 249.799 220.933 249.8 220.933C249.801 220.932 249.803 220.931 249.806 220.93C249.81 220.928 249.816 220.926 249.824 220.922C249.84 220.915 249.863 220.905 249.891 220.891C249.948 220.865 250.03 220.827 250.133 220.778C250.339 220.681 250.631 220.54 250.979 220.362C251.673 220.009 252.608 219.505 253.552 218.909C254.483 218.321 255.481 217.606 256.263 216.823C256.985 216.1 257.816 215.033 257.816 213.741H254.816ZM195.756 163.802C202.221 156.127 211.53 151.87 219.998 153.257L220.483 150.296C210.707 148.695 200.415 153.614 193.461 161.869L195.756 163.802ZM219.987 153.255C221.208 153.464 222.408 153.786 223.57 154.218L224.615 151.406C223.278 150.909 221.898 150.538 220.493 150.298L219.987 153.255ZM252.564 156.589C259.4 150.33 267.887 148.167 274.621 151.279L275.879 148.556C267.696 144.774 257.94 147.6 250.538 154.376L252.564 156.589ZM274.619 151.279C275.611 151.739 276.552 152.303 277.426 152.962L279.233 150.567C278.19 149.78 277.066 149.106 275.881 148.557L274.619 151.279Z" fill="#050504"/>
<path d="M226.224 233.073C229.715 241.238 241.795 243.2 247.3 242.274" stroke="#050504" stroke-width="3" stroke-miterlimit="10" stroke-linecap="round"/>
<path d="M219.759 193.224C223.406 193.224 226.363 189.168 226.363 184.165C226.363 179.162 223.406 175.106 219.759 175.106C216.111 175.106 213.155 179.162 213.155 184.165C213.155 189.168 216.111 193.224 219.759 193.224Z" fill="#050504"/>
<path d="M224.103 180.894C222.335 174.165 213.494 173.118 207.101 178.718" stroke="#050504" stroke-width="3" stroke-linecap="round"/>
<path d="M271.42 189.953C275.067 189.953 278.024 185.897 278.024 180.894C278.024 175.891 275.067 171.836 271.42 171.836C267.773 171.836 264.816 175.891 264.816 180.894C264.816 185.897 267.773 189.953 271.42 189.953Z" fill="#050504"/>
<path d="M275.764 177.624C273.996 170.894 265.156 169.847 258.762 175.447" stroke="#050504" stroke-width="3" stroke-linecap="round"/>
</g>
<rect x="1.5" y="1.5" width="397" height="397" rx="198.5" stroke="#050504" stroke-width="3"/>
<defs>
<clipPath id="clip0_104_993">
<rect width="400" height="400" rx="200" fill="white"/>
</clipPath>
</defs>
</svg>
