<svg width="24" height="24" viewBox="0 0 24 24" fill="none" xmlns="http://www.w3.org/2000/svg">
<g clip-path="url(#clip0_459_185)">
<mask id="mask0_459_185" style="mask-type:alpha" maskUnits="userSpaceOnUse" x="0" y="0" width="24" height="24">
<path d="M24 0H0V24H24V0Z" fill="#D9D9D9"/>
</mask>
<g mask="url(#mask0_459_185)">
<path d="M12.275 15.525C13.4417 15.525 14.4333 15.15 15.25 14.4C16.0667 13.65 16.475 12.7417 16.475 11.675C16.475 10.725 16.1708 9.92083 15.5625 9.2625C14.9542 8.60417 14.2167 8.275 13.35 8.275C12.5667 8.275 11.9042 8.525 11.3625 9.025C10.8208 9.525 10.55 10.1417 10.55 10.875C10.55 11.1917 10.6042 11.5042 10.7125 11.8125C10.8208 12.1208 11.0083 12.3917 11.275 12.625C11.5417 12.8583 11.8083 12.9542 12.075 12.9125C12.3417 12.8708 12.5583 12.7583 12.725 12.575C12.8917 12.3917 12.9875 12.1708 13.0125 11.9125C13.0375 11.6542 12.9333 11.4167 12.7 11.2C12.6667 11.1667 12.6333 11.125 12.6 11.075C12.5667 11.025 12.55 10.9667 12.55 10.9C12.55 10.7167 12.625 10.5708 12.775 10.4625C12.925 10.3542 13.1167 10.3 13.35 10.3C13.6833 10.3 13.9583 10.4375 14.175 10.7125C14.3917 10.9875 14.5 11.3167 14.5 11.7C14.5 12.2167 14.2875 12.6542 13.8625 13.0125C13.4375 13.3708 12.9167 13.55 12.3 13.55C11.5167 13.55 10.8542 13.2333 10.3125 12.6C9.77083 11.9667 9.5 11.1917 9.5 10.275C9.5 9.95833 9.5375 9.65 9.6125 9.35C9.6875 9.05 9.8 8.76667 9.95 8.5C10.0833 8.25 10.15 7.9875 10.15 7.7125C10.15 7.4375 10.05 7.2 9.85 7C9.65 6.8 9.40833 6.70417 9.125 6.7125C8.84167 6.72083 8.625 6.84167 8.475 7.075C8.14167 7.54167 7.89167 8.04167 7.725 8.575C7.55833 9.10833 7.475 9.66667 7.475 10.25C7.475 11.7167 7.94167 12.9625 8.875 13.9875C9.80833 15.0125 10.9417 15.525 12.275 15.525ZM6 17.7C5.05 16.8333 4.3125 15.8208 3.7875 14.6625C3.2625 13.5042 3 12.2833 3 11C3 8.5 3.875 6.375 5.625 4.625C7.375 2.875 9.5 2 12 2C14.0833 2 15.9292 2.6125 17.5375 3.8375C19.1458 5.0625 20.1917 6.65833 20.675 8.625L21.975 13.75C22.0583 14.0667 22 14.3542 21.8 14.6125C21.6 14.8708 21.3333 15 21 15H19V18C19 18.55 18.8042 19.0208 18.4125 19.4125C18.0208 19.8042 17.55 20 17 20H15V21C15 21.2833 14.9042 21.5208 14.7125 21.7125C14.5208 21.9042 14.2833 22 14 22C13.7167 22 13.4792 21.9042 13.2875 21.7125C13.0958 21.5208 13 21.2833 13 21V19C13 18.7167 13.0958 18.4792 13.2875 18.2875C13.4792 18.0958 13.7167 18 14 18H17V14C17 13.7167 17.0958 13.4792 17.2875 13.2875C17.4792 13.0958 17.7167 13 18 13H19.7L18.75 9.125C18.3667 7.60833 17.55 6.375 16.3 5.425C15.05 4.475 13.6167 4 12 4C10.0667 4 8.41667 4.675 7.05 6.025C5.68333 7.375 5 9.01667 5 10.95C5 11.95 5.20417 12.9 5.6125 13.8C6.02083 14.7 6.6 15.5 7.35 16.2L8 16.8V21C8 21.2833 7.90417 21.5208 7.7125 21.7125C7.52083 21.9042 7.28333 22 7 22C6.71667 22 6.47917 21.9042 6.2875 21.7125C6.09583 21.5208 6 21.2833 6 21V17.7Z" fill="#1C1B1F"/>
</g>
</g>
<defs>
<clipPath id="clip0_459_185">
<rect width="24" height="24" fill="white"/>
</clipPath>
</defs>
</svg>
