<?xml version="1.0" standalone="no"?><!DOCTYPE svg PUBLIC "-//W3C//DTD SVG 1.1//EN" "http://www.w3.org/Graphics/SVG/1.1/DTD/svg11.dtd"><svg t="1724917078907" class="icon" viewBox="0 0 1024 1024" version="1.1" xmlns="http://www.w3.org/2000/svg" p-id="3354" xmlns:xlink="http://www.w3.org/1999/xlink" width="200" height="200"><path d="M512 640c-72.533333 0-128-55.466667-128-128s55.466667-128 128-128 128 55.466667 128 128-55.466667 128-128 128z m0-170.666667c-25.6 0-42.666667 17.066667-42.666667 42.666667s17.066667 42.666667 42.666667 42.666667 42.666667-17.066667 42.666667-42.666667-17.066667-42.666667-42.666667-42.666667zM814.933333 857.6c-12.8 0-21.333333-4.266667-29.866666-12.8-17.066667-17.066667-17.066667-42.666667 0-59.733333 149.333333-149.333333 149.333333-392.533333 0-541.866667-17.066667-17.066667-17.066667-42.666667 0-59.733333 17.066667-17.066667 42.666667-17.066667 59.733333 0 183.466667 183.466667 183.466667 482.133333 0 665.6-8.533333 4.266667-21.333333 8.533333-29.866667 8.533333z m-605.866666 0c-12.8 0-21.333333-4.266667-29.866667-12.8-183.466667-183.466667-183.466667-482.133333 0-665.6 17.066667-17.066667 42.666667-17.066667 59.733333 0 17.066667 17.066667 17.066667 42.666667 0 59.733333-149.333333 149.333333-149.333333 392.533333 0 541.866667 17.066667 17.066667 17.066667 42.666667 0 59.733333-8.533333 12.8-17.066667 17.066667-29.866666 17.066667z m482.133333-119.466667c-8.533333 0-12.8 0-17.066667-4.266666-21.333333-8.533333-29.866667-34.133333-17.066666-55.466667l12.8-12.8c81.066667-81.066667 81.066667-217.6-4.266667-298.666667-17.066667-17.066667-17.066667-42.666667 0-59.733333s42.666667-17.066667 59.733333 0c115.2 115.2 115.2 307.2 0 422.4-8.533333 0-21.333333 8.533333-34.133333 8.533333z m-358.4-4.266666c-12.8 0-21.333333-4.266667-29.866667-12.8-115.2-115.2-115.2-307.2 0-422.4 17.066667-17.066667 42.666667-17.066667 59.733334 0 17.066667 17.066667 17.066667 42.666667 0 59.733333-42.666667 42.666667-64 98.133333-64 153.6 0 55.466667 21.333333 110.933333 64 149.333333 17.066667 17.066667 17.066667 42.666667 0 59.733334-8.533333 8.533333-21.333333 12.8-29.866667 12.8z" fill="#2c2c2c" p-id="3355"></path></svg>