<?xml version="1.0" standalone="no"?><!DOCTYPE svg PUBLIC "-//W3C//DTD SVG 1.1//EN" "http://www.w3.org/Graphics/SVG/1.1/DTD/svg11.dtd"><svg t="1724917035724" class="icon" viewBox="0 0 1024 1024" version="1.1" xmlns="http://www.w3.org/2000/svg" p-id="3057" xmlns:xlink="http://www.w3.org/1999/xlink" width="200" height="200"><path d="M192 1024v-64h704a64 64 0 0 0 64-64V128a64 64 0 0 0-64-64H192a64 64 0 0 0-64 64v585.536H64V128a128 128 0 0 1 128-128h704a128 128 0 0 1 128 128v768a128 128 0 0 1-128 128H192z m0 0v-64h704a64 64 0 0 0 64-64V128a64 64 0 0 0-64-64H192a64 64 0 0 0-64 64v585.536H64V128a128 128 0 0 1 128-128h704a128 128 0 0 1 128 128v768a128 128 0 0 1-128 128H192z" fill="#2c2c2c" p-id="3058"></path><path d="M865.92 978.304a36.48 36.48 0 0 1 3.2-17.344c-2.176 2.56-7.488 8-15.36 14.784l12.992 14.848a83.648 83.648 0 0 1-0.832-12.288zM767.872 864V768H64v128a64 64 0 0 0 64 64h658.688c-14.08-26.112-20.48-58.88-18.816-96zM64 704h703.872a64 64 0 0 1 64 64v96c-2.752 60.864 18.56 92.864 64 96 45.44 3.136 45.44 24.448 0 64H128a128 128 0 0 1-128-128v-128a64 64 0 0 1 64-64z" fill="#2c2c2c" p-id="3059"></path><path d="M832 256a32 32 0 1 1 0 64H384a32 32 0 0 1 0-64h448z" fill="#2c2c2c" p-id="3060"></path><path d="M224 257.92l64 0 0 64-64 0 0-64Z" fill="#2c2c2c" p-id="3061"></path><path d="M832 512a32 32 0 1 1 0 64H384a32 32 0 0 1 0-64h448z" fill="#2c2c2c" p-id="3062"></path><path d="M224 513.92l64 0 0 64-64 0 0-64Z" fill="#2c2c2c" p-id="3063"></path></svg>