<?xml version="1.0" standalone="no"?><!DOCTYPE svg PUBLIC "-//W3C//DTD SVG 1.1//EN" "http://www.w3.org/Graphics/SVG/1.1/DTD/svg11.dtd"><svg t="1724917122551" class="icon" viewBox="0 0 1024 1024" version="1.1" xmlns="http://www.w3.org/2000/svg" p-id="3792" xmlns:xlink="http://www.w3.org/1999/xlink" width="200" height="200"><path d="M877.714286 914.285714c0 21.942857-14.628571 36.571429-36.571429 36.571429h-658.285714c-21.942857 0-36.571429-14.628571-36.571429-36.571429v-804.571428c0-21.942857 14.628571-36.571429 36.571429-36.571429H585.142857v182.857143C585.142857 314.514286 636.342857 365.714286 694.857143 365.714286H877.714286v548.571428zM658.285714 124.342857L826.514286 292.571429H694.857143c-21.942857 0-36.571429-14.628571-36.571429-36.571429V124.342857z m277.942857 175.542857l-292.571428-292.571428S629.028571 0 621.714286 0h-438.857143C124.342857 0 73.142857 51.2 73.142857 109.714286v804.571428c0 58.514286 51.2 109.714286 109.714286 109.714286h658.285714c58.514286 0 109.714286-51.2 109.714286-109.714286v-585.142857c0-7.314286-7.314286-21.942857-14.628572-29.257143z m-292.571428 182.857143L460.8 665.6 380.342857 585.142857c-14.628571-14.628571-36.571429-14.628571-51.2 0-14.628571 14.628571-14.628571 36.571429 0 51.2l102.4 102.4c14.628571 14.628571 36.571429 14.628571 51.2 0l204.8-204.8c14.628571-14.628571 14.628571-36.571429 0-51.2-7.314286-14.628571-29.257143-14.628571-43.885714 0z" fill="#2c2c2c" p-id="3793"></path></svg>