<svg xmlns="http://www.w3.org/2000/svg" xmlns:xlink="http://www.w3.org/1999/xlink" width="56.3482666015625" height="56.34113311767578" viewBox="0 0 56.3482666015625 56.34113311767578" fill="none">
<path d="M52.9406 24.7613C53.5626 29.2813 52.9346 33.6864 51.317 37.6269C51.2564 37.776 51.1904 37.9258 51.1244 38.0756C50.9731 38.4319 50.8112 38.7897 50.6373 39.1384C50.5653 39.2836 50.4932 39.4288 50.4105 39.5755C47.8172 44.6461 43.5111 48.7564 38.1592 51.0893C38.0467 51.1373 37.9289 51.186 37.8164 51.2339C35.8662 52.0489 33.7754 52.6289 31.5814 52.9308C23.023 54.1085 14.8769 50.8079 9.53252 44.8164C9.02879 44.2633 8.55327 43.6794 8.10817 43.0804C5.67174 39.8113 4.00231 35.9009 3.40737 31.5775C1.52535 17.9009 11.0871 5.29052 24.7666 3.40809C38.4462 1.52567 51.0586 11.0847 52.9406 24.7613Z"   fill="#EDDDD6" >
</path>
<path d="M17.0901 26.2579C17.0901 26.2579 12.5023 12.5478 22.4487 8.55429C32.395 4.56082 35.028 19.092 35.028 19.092C35.028 19.092 46.531 19.6847 48.1052 30.5733C50.0702 44.1843 36.5902 43.7014 36.5902 43.7014L23.4179 40.3402C23.4179 40.3402 9.98675 35.2558 17.0954 26.2572L17.0901 26.2579Z"   fill="#000000" >
</path>
<path d="M50.4076 39.5781C47.8142 44.6487 43.5081 48.759 38.1563 51.092C38.0438 51.1399 37.926 51.1886 37.8135 51.2366C35.8633 52.0515 33.7725 52.6315 31.5784 52.9334C23.0201 54.1111 14.874 50.8106 9.52959 44.819C12.2295 39.8149 15.9262 35.7993 18.5949 34.1874C22.5433 31.804 29.0331 29.677 35.4215 30.5893C35.4382 30.5924 35.4595 30.5894 35.4814 30.5918C37.4033 30.8686 39.3085 31.4182 41.1376 32.3192C45.0916 34.2646 48.1168 36.7382 50.4076 39.5781Z"   fill="#F7734F" >
</path>
<path d="M23.1777 27.9143L23.1981 28.063L23.7159 30.8817L24.1125 33.0947C24.1125 33.0947 23.9921 33.6362 26.5619 33.1148C29.9981 32.3985 30.9144 30.757 30.9144 30.757L30.3454 25.5209L29.3213 25.8674L23.1777 27.9143Z"   fill="#FCA397" >
</path>
<path d="M23.1989 28.0689L23.7167 30.8876C25.3723 30.4487 28.3427 29.2985 29.2211 26.4771C29.2868 26.2462 29.3242 26.0462 29.3235 25.8839L23.2097 28.0295L23.205 28.0735L23.1989 28.0689Z"   fill="#000000" >
</path>
<path d="M20.2324 14.646C20.2324 14.646 18.0184 22.4732 19.7534 26.4666C21.4876 30.4546 25.1802 29.2808 27.3276 28.1681C29.4803 27.0547 30.3361 25.5244 30.3361 25.5244C30.3361 25.5244 32.5492 25.9505 33.6918 23.7909C34.8345 21.6312 33.6527 19.4938 32.3758 19.1445C31.099 18.7953 29.7845 19.8637 29.7845 19.8637L30.6155 17.563C30.6155 17.563 24.3809 7.3049 20.2324 14.646Z"   fill="#FCA397" >
</path>
<path d="M21.0877 13.4126C21.0877 13.4126 21.3948 17.3752 25.5928 18.6159C29.7908 19.8566 32.3829 19.1427 32.3829 19.1427L31.4226 14.0524L25.7317 9.35868L21.5001 11.3751L21.0877 13.4126Z"   fill="#000000" >
</path>
<path d="M29.3691 18.7592L29.6874 20.9938L31.4092 18.7544L29.3691 18.7592L29.3691 18.7592Z" fill-rule="evenodd"  fill="#000000" >
</path>
<path d="M51.1235 38.0745C50.9723 38.4309 50.8104 38.7887 50.6365 39.1373C50.5644 39.2826 50.4924 39.4278 50.4097 39.5744C47.8164 44.6451 43.5102 48.7553 38.1584 51.0883C38.0459 51.1363 37.9281 51.1849 37.8156 51.2329L35.3205 30.5835C35.3205 30.5835 35.3584 30.5837 35.4237 30.5856C35.4403 30.5887 35.4616 30.5858 35.4836 30.5881C36.7339 30.6272 44.9576 31.1082 50.1222 36.8161C50.4721 37.1954 50.8013 37.621 51.1235 38.0745Z"   fill="#F7734F" >
</path>
<path d="M25.8564 33.5283C24.2945 33.7432 23.0871 33.6225 22.9885 33.6144C22.84 33.597 22.7352 33.4653 22.7481 33.3228C22.7656 33.1743 22.8973 33.0696 23.0398 33.0824C23.0891 33.0865 27.9228 33.5578 30.8145 30.7732C30.9197 30.6722 31.0934 30.6753 31.1945 30.7805C31.2955 30.8856 31.2924 31.0592 31.1872 31.1603C29.6003 32.6883 27.5192 33.2994 25.8511 33.529L25.8564 33.5283Z" fill-rule="evenodd"  fill="#7772D3" >
</path>
<path d="M19.683 17.469C19.5714 17.4844 19.4549 17.4247 19.4024 17.3182C19.3409 17.186 19.3948 17.027 19.5317 16.9595L20.9396 16.2949C21.0719 16.2334 21.2309 16.2873 21.2984 16.4241C21.3599 16.5564 21.306 16.7153 21.1692 16.7829L19.7612 17.4474C19.7612 17.4474 19.7095 17.4654 19.683 17.469Z"   fill="#000000" >
</path>
<path d="M30.4133 23.283C30.3442 23.2925 30.2662 23.2762 30.205 23.2251C30.0895 23.1327 30.0767 22.9613 30.1691 22.8458L32.1601 20.4395C32.2525 20.324 32.424 20.3112 32.5395 20.4035C32.6551 20.4959 32.6678 20.6673 32.5755 20.7828L30.5844 23.1891C30.5379 23.2442 30.477 23.2742 30.4133 23.283Z"   fill="#000000" >
</path>
<path d="M32.6837 22.6877C32.6466 22.6928 32.6086 22.6926 32.5746 22.6811L31.1327 22.2734C30.9919 22.2332 30.9062 22.0827 30.9464 21.9418C30.9865 21.801 31.1371 21.7153 31.278 21.7555L32.7198 22.1632C32.8607 22.2034 32.9464 22.3539 32.9062 22.4948C32.8776 22.6015 32.7847 22.6738 32.6837 22.6877Z"   fill="#000000" >
</path>
<path d="M20.6524 21.1314C20.6524 21.1314 20.6153 21.1365 20.5986 21.1334C20.4508 21.1213 20.3414 20.9956 20.3483 20.8486L20.4394 19.5047L19.8234 18.9617C19.7124 18.8633 19.7004 18.6972 19.7981 18.5809C19.8965 18.47 20.0626 18.4579 20.1789 18.5556L20.8991 19.1871C20.961 19.2435 20.994 19.3256 20.989 19.4074L20.8888 20.8824C20.8798 21.0135 20.7799 21.1139 20.6578 21.1307L20.6524 21.1314Z"   fill="#000000" >
</path>
<path d="M25.1355 20.7459C25.1355 20.7459 25.0983 20.751 25.0817 20.7479C24.9339 20.7358 24.8245 20.6101 24.8314 20.463L24.9225 19.1192L24.3065 18.5762C24.1955 18.4778 24.1835 18.3117 24.2812 18.1954C24.3796 18.0844 24.5457 18.0724 24.662 18.17L25.3822 18.8015C25.4441 18.858 25.4771 18.94 25.4721 19.0219L25.3719 20.4969C25.3629 20.628 25.263 20.7283 25.1408 20.7452L25.1355 20.7459Z"   fill="#000000" >
</path>
<path d="M21.9791 24.2471C21.8569 24.2639 21.7336 24.1943 21.6895 24.0705C20.8702 21.7749 21.8487 20.428 21.8899 20.3736C21.9762 20.2535 22.1462 20.2301 22.2671 20.3217C22.3872 20.408 22.4106 20.578 22.319 20.6988C22.2831 20.7525 21.4763 21.8918 22.1902 23.8933C22.2418 24.0324 22.1659 24.1889 22.0262 24.2352C22.0102 24.2374 21.9897 24.2457 21.9791 24.2471Z"   fill="#000000" >
</path>
<path   fill-rule="evenodd"  fill="#000000"  d="M24.6879 26.1916C24.5286 26.2136 24.1412 26.1911 23.2351 25.4282C23.1309 25.3397 23.08 25.206 23.0943 25.0742C23.1132 24.9363 23.2049 24.8154 23.3371 24.7539C25.1555 23.9246 25.4375 24.0861 25.56 24.1504C25.6652 24.2063 25.8327 24.3618 25.7747 24.727C25.6978 25.2301 25.1981 26.0835 24.7343 26.1744C24.7237 26.1759 24.7077 26.1781 24.6865 26.181L24.6879 26.1916ZM23.7559 25.1617C24.2416 25.5441 24.5663 25.6618 24.6308 25.6583C24.6786 25.6517 24.8393 25.5214 25.0191 25.2152C25.1729 24.9559 25.24 24.7356 25.2519 24.6257C25.1001 24.6629 24.6377 24.7644 23.7552 25.1564L23.7559 25.1617Z">
</path>
<path d="M17.9182 42.5266C17.896 42.5621 15.7309 45.6309 16.8874 50.4561C16.7202 50.3817 16.5622 50.2952 16.3988 50.2095C16.3526 50.1888 16.3111 50.162 16.2642 50.136C15.2827 45.3246 17.4592 42.2596 17.486 42.218C17.5723 42.0979 17.737 42.0753 17.8617 42.1555C17.9818 42.2418 18.0052 42.4118 17.9182 42.5266Z"   fill="#7772D3" >
</path>
</svg>
