<?xml version="1.0" standalone="no"?><!DOCTYPE svg PUBLIC "-//W3C//DTD SVG 1.1//EN" "http://www.w3.org/Graphics/SVG/1.1/DTD/svg11.dtd"><svg t="1724916960390" class="icon" viewBox="0 0 1024 1024" version="1.1" xmlns="http://www.w3.org/2000/svg" p-id="2766" xmlns:xlink="http://www.w3.org/1999/xlink" width="200" height="200"><path d="M947.203239 116.054378H555.519713v-72.533986a43.520392 43.520392 0 0 0-87.040783 0v72.533986H76.795405A43.520392 43.520392 0 0 0 33.275013 159.57477v580.271889a43.520392 43.520392 0 0 0 43.520392 43.520391h235.735455l-108.800979 174.262902a43.520392 43.520392 0 0 0 13.962792 59.840539 42.976387 42.976387 0 0 0 23.029541 6.528058 43.520392 43.520392 0 0 0 36.266993-20.490851l138.721248-220.140648h207.084531l137.270568 220.140648a43.339057 43.339057 0 0 0 36.266993 20.490851 42.613717 42.613717 0 0 0 23.029541-6.528058 43.520392 43.520392 0 0 0 13.962792-59.840539l-108.800979-174.262902H947.203239a43.520392 43.520392 0 0 0 43.520391-43.520391v-580.271889a43.520392 43.520392 0 0 0-43.520391-43.520392z" fill="#2c2c2c" p-id="2767"></path><path d="M114.331743 196.204433h797.873847v507.737902h-797.873847z" fill="#FFFFFF" p-id="2768"></path><path d="M774.572352 483.620353l-40.437698-56.395175-217.420623 155.585401-47.328426-136.907899-234.46611 177.345596-34.997649-46.240416 298.296018-225.399362 47.872431 138.721248 154.316056-110.251659-40.256363-56.395174 195.841763-19.040171-81.419399 178.977611z" fill="#2c2c2c" p-id="2769"></path></svg>